<svg xmlns="http://www.w3.org/2000/svg" viewBox="0 0 22 22" width="22" height="22" xmlns:c2pa="http://c2pa.org/manifest"><metadata><c2pa:manifest>AAAWgmp1bWIAAAAeanVtZGMycGEAEQAQgAAAqgA4m3EDYzJwYQAAABZcanVtYgAAAEdqdW1kYzJtYQARABCAAACqADibcQN1cm46YzJwYTozNTJjMmUwMy00Y2JiLTRmYzItODEzYi05NzI2Y2NhNmY1YjQAAAADl2p1bWIAAAApanVtZGMyYXMAEQAQgAAAqgA4m3EDYzJwYS5hc3NlcnRpb25zAAAAALxqdW1iAAAARGp1bWRjYm9yABEAEIAAAKoAOJtxE2MycGEuaW5ncmVkaWVudC52MwAAAAAYYzJzaEZh+FSNrYtABsafoDUWv0AAAABwY2JvcqNpZGM6Zm9ybWF0bWltYWdlL3N2Zyt4bWxqaW5zdGFuY2VJRHgseG1wOmlpZDo2MGIwMGVkNy1iMjUwLTRhYWMtOTE0MS00OGE2ODIzZmQyMzdscmVsYXRpb25zaGlwaHBhcmVudE9mAAAB4mp1bWIAAABBanVtZGNib3IAEQAQgAAAqgA4m3ETYzJwYS5hY3Rpb25zLnYyAAAAABhjMnNoqnk9dgI14zP1oZAT18CXjwAAAZljYm9yomdhY3Rpb25zgqJmYWN0aW9ua2MycGEub3BlbmVkanBhcmFtZXRlcnOha2luZ3JlZGllbnRzgaJjdXJseC1zZWxmI2p1bWJmPWMycGEuYXNzZXJ0aW9ucy9jMnBhLmluZ3JlZGllbnQudjNkaGFzaFggyGAuVdF7U6Ok3/7txIBA6DzUFGp9FVujYj4EDFdQijikZmFjdGlvbngdY29tLmFudGhyb3BpYy5jbGF1ZGUucHJvdmlkZWRqcGFyYW1ldGVyc6F4H2NvbS5hbnRocm9waWMub3JpZ2luLWNvbmZpZGVuY2VndW5rbm93bmtkZXNjcmlwdGlvbnhmQ2xhdWRlIHByb3ZpZGVkIHRoaXMgZmlsZSBhdCB0aGUgcmVxdWVzdCBvZiBhIHVzZXIgYW5kIG1heSBoYXZlIGNyZWF0ZWQgb3IgbW9kaWZpZWQgdGhlIGZpbGUgY29udGVudHMubXNvZnR3YXJlQWdlbnShZG5hbWVmQ2xhdWRlcmFsbEFjdGlvbnNJbmNsdWRlZPUAAADIanVtYgAAAEBqdW1kY2JvcgARABCAAACqADibcRNjMnBhLmhhc2guZGF0YQAAAAAYYzJzaGTcWd6c3WwOFq/0cpixeAEAAACAY2JvcqVjYWxnZnNoYTI1NmNwYWRNAAAAAAAAAAAAAAAAAGRoYXNoWCA3jH7j9QGuH2ipmQ59ZN2CzOJleRlg3ePfRc9giEDzt2RuYW1lbmp1bWJmIG1hbmlmZXN0amV4Y2x1c2lvbnOBomVzdGFydBiSZmxlbmd0aBkeBAAAAj5qdW1iAAAAJ2p1bWRjMmNsABEAEIAAAKoAOJtxA2MycGEuY2xhaW0udjIAAAACD2Nib3KlY2FsZ2ZzaGEyNTZpc2lnbmF0dXJleE1zZWxmI2p1bWJmPS9jMnBhL3VybjpjMnBhOjM1MmMyZTAzLTRjYmItNGZjMi04MTNiLTk3MjZjY2E2ZjViNC9jMnBhLnNpZ25hdHVyZWppbnN0YW5jZUlEeCx4bXA6aWlkOjdlODVkNGRkLWQ1MTYtNDVjMC05N2Q1LWViNjBiNWI5ZjA2YnJjcmVhdGVkX2Fzc2VydGlvbnODomN1cmx4LXNlbGYjanVtYmY9YzJwYS5hc3NlcnRpb25zL2MycGEuaW5ncmVkaWVudC52M2RoYXNoWCDIYC5V0XtTo6Tf/u3EgEDoPNQUan0VW6NiPgQMV1CKOKJjdXJseCpzZWxmI2p1bWJmPWMycGEuYXNzZXJ0aW9ucy9jMnBhLmFjdGlvbnMudjJkaGFzaFggcIBxR5Hw14a4VfPWoRd64rsJ5cjndXUJgCaz+GGK3RmiY3VybHgpc2VsZiNqdW1iZj1jMnBhLmFzc2VydGlvbnMvYzJwYS5oYXNoLmRhdGFkaGFzaFggxD/3Yj+pdZNd48KmVIdcVz9At4WC+OuSFFBhvJ1KiTx0Y2xhaW1fZ2VuZXJhdG9yX2luZm+jZG5hbWVvQW50aHJvcGljIEZpbGVzZ3ZlcnNpb25lMS4wLjBrc3BlY1ZlcnNpb25lMi40LjAAABA4anVtYgAAAChqdW1kYzJjcwARABCAAACqADibcQNjMnBhLnNpZ25hdHVyZQAAABAIY2JvctKEWQISogEmGCFZAgowggIGMIIBjaADAgECAhRA5aAK7sI50L64g/oGQgU9Z1UTADAKBggqhkjOPQQDAzBJMRcwFQYDVQQKEw5BbnRocm9waWMsIFBCQzEuMCwGA1UEAxMlQW50aHJvcGljIENvbnRlbnQgQ3JlZGVudGlhbHMgUm9vdCBDQTAeFw0yNjA4MDcxODQzNTZaFw0yODA4MDYxOTQzNTZaMEQxFzAVBgNVBAoTDkFudGhyb3BpYywgUEJDMSkwJwYDVQQDEyBBbnRocm9waWMgQ2xhdWRlIENvbnRlbnQgU2lnbmluZzBZMBMGByqGSM49AgEGCCqGSM49AwEHA0IABJh6CmvLUBgFFNU0vUKlOVtE6djd17L5SuwX0LemFisBM3dkd/3cyjxFA3Qo5S46fX0/ihY0VZ7mfb9KF703t5OjWDBWMA4GA1UdDwEB/wQEAwIHgDAVBgNVHSUEDjAMBgorBgEEAYPoXgIBMAwGA1UdEwEB/wQCMAAwHwYDVR0jBBgwFoAUzlHiBIFOZFsj+OPEz5o+nMHXXMIwCgYIKoZIzj0EAwMDZwAwZAIwMXMdFJ4BetLLVY7ORuE9noqbbAZOZn/aArXyTwFAZfKrPzxF2vPoJNf1+UCdg1XGAjBwX1zd9WGqYkqmL5SFqw1QySjr1zJfpJM9+1rdDwSPLMOPOjKuiXjoU/pUUeG9RwmhY3BhZFkNngAAAAAAAAAAAAAAAAAAAAAAAAAAAAAAAAAAAAAAAAAAAAAAAAAAAAAAAAAAAAAAAAAAAAAAAAAAAAAAAAAAAAAAAAAAAAAAAAAAAAAAAAAAAAAAAAAAAAAAAAAAAAAAAAAAAAAAAAAAAAAAAAAAAAAAAAAAAAAAAAAAAAAAAAAAAAAAAAAAAAAAAAAAAAAAAAAAAAAAAAAAAAAAAAAAAAAAAAAAAAAAAAAAAAAAAAAAAAAAAAAAAAAAAAAAAAAAAAAAAAAAAAAAAAAAAAAAAAAAAAAAAAAAAAAAAAAAAAAAAAAAAAAAAAAAAAAAAAAAAAAAAAAAAAAAAAAAAAAAAAAAAAAAAAAAAAAAAAAAAAAAAAAAAAAAAAAAAAAAAAAAAAAAAAAAAAAAAAAAAAAAAAAAAAAAAAAAAAAAAAAAAAAAAAAAAAAAAAAAAAAAAAAAAAAAAAAAAAAAAAAAAAAAAAAAAAAAAAAAAAAAAAAAAAAAAAAAAAAAAAAAAAAAAAAAAAAAAAAAAAAAAAAAAAAAAAAAAAAAAAAAAAAAAAAAAAAAAAAAAAAAAAAAAAAAAAAAAAAAAAAAAAAAAAAAAAAAAAAAAAAAAAAAAAAAAAAAAAAAAAAAAAAAAAAAAAAAAAAAAAAAAAAAAAAAAAAAAAAAAAAAAAAAAAAAAAAAAAAAAAAAAAAAAAAAAAAAAAAAAAAAAAAAAAAAAAAAAAAAAAAAAAAAAAAAAAAAAAAAAAAAAAAAAAAAAAAAAAAAAAAAAAAAAAAAAAAAAAAAAAAAAAAAAAAAAAAAAAAAAAAAAAAAAAAAAAAAAAAAAAAAAAAAAAAAAAAAAAAAAAAAAAAAAAAAAAAAAAAAAAAAAAAAAAAAAAAAAAAAAAAAAAAAAAAAAAAAAAAAAAAAAAAAAAAAAAAAAAAAAAAAAAAAAAAAAAAAAAAAAAAAAAAAAAAAAAAAAAAAAAAAAAAAAAAAAAAAAAAAAAAAAAAAAAAAAAAAAAAAAAAAAAAAAAAAAAAAAAAAAAAAAAAAAAAAAAAAAAAAAAAAAAAAAAAAAAAAAAAAAAAAAAAAAAAAAAAAAAAAAAAAAAAAAAAAAAAAAAAAAAAAAAAAAAAAAAAAAAAAAAAAAAAAAAAAAAAAAAAAAAAAAAAAAAAAAAAAAAAAAAAAAAAAAAAAAAAAAAAAAAAAAAAAAAAAAAAAAAAAAAAAAAAAAAAAAAAAAAAAAAAAAAAAAAAAAAAAAAAAAAAAAAAAAAAAAAAAAAAAAAAAAAAAAAAAAAAAAAAAAAAAAAAAAAAAAAAAAAAAAAAAAAAAAAAAAAAAAAAAAAAAAAAAAAAAAAAAAAAAAAAAAAAAAAAAAAAAAAAAAAAAAAAAAAAAAAAAAAAAAAAAAAAAAAAAAAAAAAAAAAAAAAAAAAAAAAAAAAAAAAAAAAAAAAAAAAAAAAAAAAAAAAAAAAAAAAAAAAAAAAAAAAAAAAAAAAAAAAAAAAAAAAAAAAAAAAAAAAAAAAAAAAAAAAAAAAAAAAAAAAAAAAAAAAAAAAAAAAAAAAAAAAAAAAAAAAAAAAAAAAAAAAAAAAAAAAAAAAAAAAAAAAAAAAAAAAAAAAAAAAAAAAAAAAAAAAAAAAAAAAAAAAAAAAAAAAAAAAAAAAAAAAAAAAAAAAAAAAAAAAAAAAAAAAAAAAAAAAAAAAAAAAAAAAAAAAAAAAAAAAAAAAAAAAAAAAAAAAAAAAAAAAAAAAAAAAAAAAAAAAAAAAAAAAAAAAAAAAAAAAAAAAAAAAAAAAAAAAAAAAAAAAAAAAAAAAAAAAAAAAAAAAAAAAAAAAAAAAAAAAAAAAAAAAAAAAAAAAAAAAAAAAAAAAAAAAAAAAAAAAAAAAAAAAAAAAAAAAAAAAAAAAAAAAAAAAAAAAAAAAAAAAAAAAAAAAAAAAAAAAAAAAAAAAAAAAAAAAAAAAAAAAAAAAAAAAAAAAAAAAAAAAAAAAAAAAAAAAAAAAAAAAAAAAAAAAAAAAAAAAAAAAAAAAAAAAAAAAAAAAAAAAAAAAAAAAAAAAAAAAAAAAAAAAAAAAAAAAAAAAAAAAAAAAAAAAAAAAAAAAAAAAAAAAAAAAAAAAAAAAAAAAAAAAAAAAAAAAAAAAAAAAAAAAAAAAAAAAAAAAAAAAAAAAAAAAAAAAAAAAAAAAAAAAAAAAAAAAAAAAAAAAAAAAAAAAAAAAAAAAAAAAAAAAAAAAAAAAAAAAAAAAAAAAAAAAAAAAAAAAAAAAAAAAAAAAAAAAAAAAAAAAAAAAAAAAAAAAAAAAAAAAAAAAAAAAAAAAAAAAAAAAAAAAAAAAAAAAAAAAAAAAAAAAAAAAAAAAAAAAAAAAAAAAAAAAAAAAAAAAAAAAAAAAAAAAAAAAAAAAAAAAAAAAAAAAAAAAAAAAAAAAAAAAAAAAAAAAAAAAAAAAAAAAAAAAAAAAAAAAAAAAAAAAAAAAAAAAAAAAAAAAAAAAAAAAAAAAAAAAAAAAAAAAAAAAAAAAAAAAAAAAAAAAAAAAAAAAAAAAAAAAAAAAAAAAAAAAAAAAAAAAAAAAAAAAAAAAAAAAAAAAAAAAAAAAAAAAAAAAAAAAAAAAAAAAAAAAAAAAAAAAAAAAAAAAAAAAAAAAAAAAAAAAAAAAAAAAAAAAAAAAAAAAAAAAAAAAAAAAAAAAAAAAAAAAAAAAAAAAAAAAAAAAAAAAAAAAAAAAAAAAAAAAAAAAAAAAAAAAAAAAAAAAAAAAAAAAAAAAAAAAAAAAAAAAAAAAAAAAAAAAAAAAAAAAAAAAAAAAAAAAAAAAAAAAAAAAAAAAAAAAAAAAAAAAAAAAAAAAAAAAAAAAAAAAAAAAAAAAAAAAAAAAAAAAAAAAAAAAAAAAAAAAAAAAAAAAAAAAAAAAAAAAAAAAAAAAAAAAAAAAAAAAAAAAAAAAAAAAAAAAAAAAAAAAAAAAAAAAAAAAAAAAAAAAAAAAAAAAAAAAAAAAAAAAAAAAAAAAAAAAAAAAAAAAAAAAAAAAAAAAAAAAAAAAAAAAAAAAAAAAAAAAAAAAAAAAAAAAAAAAAAAAAAAAAAAAAAAAAAAAAAAAAAAAAAAAAAAAAAAAAAAAAAAAAAAAAAAAAAAAAAAAAAAAAAAAAAAAAAAAAAAAAAAAAAAAAAAAAAAAAAAAAAAAAAAAAAAAAAAAAAAAAAAAAAAAAAAAAAAAAAAAAAAAAAAAAAAAAAAAAAAAAAAAAAAAAAAAAAAAAAAAAAAAAAAAAAAAAAAAAAAAAAAAAAAAAAAAAAAAAAAAAAAAAAAAAAAAAAAAAAAAAAAAAAAAAAAAAAAAAAAAAAAAAAAAAAAAAAAAAAAAAAAAAAAAAAAAAAAAAAAAAAAAAAAAAAAAAAAAAAAAAAAAAAAAAAAAAAAAAAAAAAAAAAAAAAAAAAAAAAAAAAAAAAAAAAAAAAAAAAAAAAAAAAAAAAAAAAAAAAAAAAAAAAAAAAAAAAAAAAAAAAAAAAAAAAAAAAAAAAAAAAAAAAAAAAAAAAAAAAAAAAAAAAAAAAAAAAAAAAAAAAAAAAAAAAAAAAAAAAAAAAAAAAAAAAAAAAAAAAAAAAAAAAAAAAAAAAAAAAAAAAAAAAAAAAAAAAAAAAAAAAAAAAAAAAAAAAAAAAAAAAAAAAAAAAAAAAAAAAAAAAAAAAAAAAAAAAAAAAAAAAAAAAAAAAAAAAAAAAAAAAAAAAAAAAAAAAAAAAAAAAAAAAAAAAAAAAAAAAAAAAAAAAAAAAAAAAAAAAAAAAAAAAAAAAAAAAAAAAAAAAAAAAAAAAAAAAAAAAAAAAAAAAAAAAAAAAAAAAAAAAAAAAAAAAAAAAAAAAAAAAAAAAAAAAAAAAAAAAAAAAAAAAAAAAAAAAAAAAAAAAAAAAAAAAAAAAAAAAAAAAAAAAAAAAAAAAAAAAAAAAAAAAAAAAAAAAAAAAAAAAAAAAAAAAAAAAAAAAAAAAAAAAAAAAAAAAAAAAAAAAAAAAAAAAAAAAAAAAAAAAAAAAAAAAAAAAAAAAAAAAAAAAAAAAAAAAAAAAAAAAAAAAAAAAAAAAAAAAAAAAAAAAAAAAAAAAAAAAAAAAAAAAAAAAAAAAAAAAAAAAAAAAAAAAAAAAAAAAAAAAAAAAAAAAAAAAAAAAAAAAAAAAAAAAAAAAAAAAAAAAAAAAAAAAAAAAAAAAAAAAAAAAAAAAAAAAAAAAAAAAAAAAAAAAAAAAAAAAAAAAAAAAAAAAAAAAAAAAAAAAAAAAAAAAAAAAAAAAAAAAAAAAAAAAAAAAAAAAAAAAAAAAAAAAAAAAAAAAAAAAAAAAAAAAAAAAAAAAAAAAAAAAAAAAAAAAAAAAAAAAAAAAAAAAAAAAAAAAAAAAAAAAAAAAAAAAAAAAAAAAAAAAAAAAAAAAAAAAAAAAAAAAAAAAAAAAAAAAAAAAAAAAAAAAAAAAAAAAAAAAAAAAAAAAAAAAAAAAAAAAAAAAAAAAAAAAAAAAAAAAAAAAAAAAAAAAAAAAAAAAAAAAAAAAAAAAAAAAAAAAAAAAAAAAAAAAAAAAAAAAAAAAAAAAAAAAAAAAAAAAAAAAAAAAAAAAAAAAAAAAAAAAAAAAAAAAAAAAAAAAAAAAAAAAAAAAAAAAAAAAAAAAAAAAAAAAAAAAAAAAAAAAAAAAAAAAAAAAAPZYQPPITjyhCT9w4AYFKYvPW6K4XYqzvc74Oio4KZ7VKnpABLAlhMmDMYwtVOMewaHEFpVLNIMbvlz4wkvJVK3Wi+M=</c2pa:manifest></metadata>
  <style id="current-color-scheme" type="text/css">.ColorScheme-Text { color:#232629; }</style>
  <path class="ColorScheme-Text" fill="currentColor" fill-rule="evenodd" d="M19.26 7.59 L17.75 16.13 L20.66 9.59 L20.75 9.27 L20.76 8.95 L20.69 8.63 L20.53 8.34 L20.31 8.10 L20.03 7.93 L19.26 7.59ZM14.25 20.90 L14.57 20.99 L14.89 21.00 L15.21 20.92 L15.50 20.77 L15.74 20.54 L15.91 20.26 L16.60 18.71 L16.59 18.71 L16.52 18.76 L16.23 18.91 L16.15 18.95 L16.06 18.98 L15.98 19.00 L15.66 19.07 L15.57 19.08 L15.49 19.09 L15.40 19.09 L15.07 19.08 L14.94 19.06 L6.98 17.66 L14.25 20.90Z M16.56 3.92 L17.33 12.75 L18.60 5.55 L18.61 5.22 L18.54 4.91 L18.39 4.62 L18.17 4.37 L17.89 4.20 L17.58 4.10 L16.56 3.92ZM15.12 18.08 L15.44 18.09 L15.76 18.02 L16.05 17.87 L16.29 17.65 L16.47 17.37 L16.57 17.06 L16.92 15.06 L16.90 15.09 L16.84 15.15 L16.78 15.22 L16.54 15.44 L16.47 15.49 L16.40 15.54 L16.33 15.59 L16.04 15.74 L15.96 15.77 L15.88 15.80 L15.79 15.83 L15.47 15.90 L15.34 15.92 L7.01 16.65 L15.12 18.08Z M12.61 3.84 L14.52 3.67 L12.44 1.93 L12.61 3.84ZM1.52 2.24 L1.35 2.52 L1.25 2.83 L1.24 3.16 L2.26 14.80 L2.33 15.12 L2.48 15.41 L2.70 15.65 L2.97 15.83 L3.29 15.92 L3.61 15.94 L15.26 14.92 L15.57 14.85 L15.86 14.70 L16.11 14.48 L16.28 14.20 L16.38 13.89 L16.39 13.56 L15.59 4.42 L15.59 4.42 L12.27 4.71 L12.23 4.71 L12.18 4.71 L12.14 4.70 L12.10 4.69 L12.07 4.67 L12.03 4.66 L11.99 4.63 L11.96 4.61 L11.93 4.58 L11.90 4.55 L11.88 4.52 L11.86 4.48 L11.84 4.45 L11.83 4.41 L11.82 4.37 L11.81 4.33 L11.52 1.00 L2.38 1.80 L2.06 1.87 L1.77 2.02 L1.52 2.24ZM3.95 4.04 L3.95 4.11 L3.93 4.18 L3.92 4.24 L3.89 4.31 L3.86 4.37 L3.83 4.43 L3.78 4.49 L3.74 4.54 L3.68 4.58 L3.63 4.62 L3.57 4.66 L3.50 4.69 L3.44 4.71 L3.37 4.73 L3.30 4.74 L3.23 4.74 L3.16 4.73 L3.09 4.72 L3.03 4.71 L2.96 4.68 L2.90 4.65 L2.84 4.61 L2.78 4.57 L2.73 4.53 L2.69 4.47 L2.65 4.42 L2.61 4.36 L2.58 4.29 L2.56 4.23 L2.54 4.16 L2.53 4.09 L2.53 4.02 L2.54 3.95 L2.55 3.88 L2.56 3.82 L2.59 3.75 L2.62 3.69 L2.65 3.63 L2.70 3.57 L2.74 3.52 L2.80 3.48 L2.85 3.43 L2.91 3.40 L2.98 3.37 L3.04 3.35 L3.11 3.33 L3.18 3.32 L3.25 3.32 L3.32 3.32 L3.39 3.33 L3.45 3.35 L3.52 3.38 L3.58 3.41 L3.64 3.44 L3.70 3.49 L3.75 3.53 L3.79 3.59 L3.83 3.64 L3.87 3.70 L3.90 3.76 L3.92 3.83 L3.94 3.90 L3.95 3.97 L3.95 4.04ZM4.20 6.95 L4.20 7.02 L4.19 7.09 L4.17 7.15 L4.15 7.22 L4.12 7.28 L4.08 7.34 L4.04 7.40 L3.99 7.45 L3.94 7.49 L3.88 7.53 L3.82 7.57 L3.76 7.60 L3.69 7.62 L3.63 7.64 L3.56 7.65 L3.49 7.65 L3.42 7.65 L3.35 7.63 L3.28 7.62 L3.22 7.59 L3.15 7.56 L3.09 7.53 L3.04 7.48 L2.99 7.44 L2.94 7.38 L2.90 7.33 L2.87 7.27 L2.84 7.20 L2.81 7.14 L2.80 7.07 L2.79 7.00 L2.79 6.93 L2.79 6.86 L2.80 6.79 L2.82 6.73 L2.84 6.66 L2.87 6.60 L2.91 6.54 L2.95 6.48 L3.00 6.43 L3.05 6.39 L3.11 6.35 L3.17 6.31 L3.23 6.28 L3.30 6.26 L3.36 6.24 L3.43 6.23 L3.50 6.23 L3.57 6.23 L3.64 6.25 L3.71 6.26 L3.77 6.29 L3.84 6.32 L3.90 6.35 L3.95 6.40 L4.00 6.44 L4.05 6.50 L4.09 6.55 L4.12 6.61 L4.15 6.68 L4.18 6.74 L4.19 6.81 L4.20 6.88 L4.20 6.95ZM4.46 9.86 L4.46 9.93 L4.44 10.00 L4.43 10.06 L4.40 10.13 L4.37 10.19 L4.34 10.25 L4.29 10.31 L4.25 10.36 L4.19 10.40 L4.14 10.45 L4.08 10.48 L4.01 10.51 L3.95 10.53 L3.88 10.55 L3.81 10.56 L3.74 10.56 L3.67 10.56 L3.60 10.55 L3.54 10.53 L3.47 10.50 L3.41 10.47 L3.35 10.44 L3.29 10.39 L3.24 10.35 L3.20 10.30 L3.16 10.24 L3.12 10.18 L3.09 10.12 L3.07 10.05 L3.05 9.98 L3.04 9.91 L3.04 9.84 L3.04 9.77 L3.06 9.70 L3.07 9.64 L3.10 9.57 L3.13 9.51 L3.16 9.45 L3.21 9.39 L3.25 9.34 L3.31 9.30 L3.36 9.26 L3.42 9.22 L3.49 9.19 L3.55 9.17 L3.62 9.15 L3.69 9.14 L3.76 9.14 L3.83 9.15 L3.90 9.16 L3.96 9.17 L4.03 9.20 L4.09 9.23 L4.15 9.27 L4.21 9.31 L4.26 9.35 L4.30 9.41 L4.34 9.46 L4.38 9.52 L4.41 9.59 L4.43 9.65 L4.45 9.72 L4.46 9.79 L4.46 9.86ZM4.71 12.77 L4.71 12.84 L4.70 12.91 L4.68 12.98 L4.66 13.04 L4.63 13.10 L4.59 13.16 L4.55 13.22 L4.50 13.27 L4.45 13.32 L4.39 13.36 L4.33 13.39 L4.27 13.42 L4.20 13.44 L4.14 13.46 L4.07 13.47 L4.00 13.47 L3.93 13.47 L3.86 13.46 L3.79 13.44 L3.73 13.41 L3.66 13.38 L3.60 13.35 L3.55 13.31 L3.50 13.26 L3.45 13.21 L3.41 13.15 L3.38 13.09 L3.35 13.03 L3.32 12.96 L3.31 12.89 L3.30 12.82 L3.29 12.75 L3.30 12.68 L3.31 12.62 L3.33 12.55 L3.35 12.48 L3.38 12.42 L3.42 12.36 L3.46 12.31 L3.51 12.25 L3.56 12.21 L3.62 12.17 L3.68 12.13 L3.74 12.10 L3.81 12.08 L3.87 12.06 L3.94 12.05 L4.01 12.05 L4.08 12.06 L4.15 12.07 L4.22 12.08 L4.28 12.11 L4.35 12.14 L4.41 12.18 L4.46 12.22 L4.51 12.27 L4.56 12.32 L4.60 12.37 L4.63 12.43 L4.66 12.50 L4.69 12.56 L4.70 12.63 L4.71 12.70 L4.71 12.77Z"/>
</svg>
